<svg width="151" height="10" viewBox="0 0 151 10" fill="none" xmlns="http://www.w3.org/2000/svg">
<path d="M10.3513 4.09121C10.3513 2.97981 9.9699 2.04275 9.21807 1.26913C8.46624 0.495512 7.55097 0.114151 6.48316 0.114151C5.51341 0.114151 4.67441 0.41924 3.96617 1.04032C3.26882 1.65049 2.83298 2.39143 2.66953 3.27401H1.63441V0.277592H0V7.90483H1.63441V4.79945H2.66953C2.83298 5.72562 3.26882 6.51014 3.96617 7.13121C4.66351 7.75229 5.50251 8.06827 6.48316 8.06827C7.55097 8.06827 8.46624 7.68691 9.21807 6.91329C9.9699 6.15057 10.3513 5.20261 10.3513 4.09121ZM8.71685 4.09121C8.71685 4.81035 8.49893 5.40963 8.06309 5.87816C7.61635 6.35759 7.09334 6.5973 6.48316 6.5973C5.87298 6.5973 5.34997 6.35759 4.91412 5.87816C4.46739 5.40963 4.24946 4.81035 4.24946 4.09121C4.24946 3.37207 4.46739 2.77279 4.91412 2.29336C5.34997 1.82483 5.87298 1.58512 6.48316 1.58512C7.09334 1.58512 7.61635 1.82483 8.06309 2.29336C8.49893 2.77279 8.71685 3.37207 8.71685 4.09121Z" fill="white"/>
<path d="M12.9603 0.278122V7.90536H14.5947V5.39927H16.1746C16.9591 5.39927 17.6129 5.14866 18.125 4.65834C18.6371 4.16801 18.8986 3.55783 18.8986 2.83869C18.8986 2.10866 18.6371 1.50938 18.125 1.00816C17.602 0.517835 16.9591 0.278122 16.1746 0.278122H12.9603ZM16.1201 1.74909C16.447 1.74909 16.7194 1.85805 16.9373 2.06507C17.1553 2.2721 17.2642 2.53361 17.2642 2.83869C17.2642 3.14378 17.1553 3.40529 16.9373 3.61232C16.7194 3.81934 16.447 3.9283 16.1201 3.9283H14.5947V1.74909H16.1201Z" fill="white"/>
<path d="M28.2618 7.90536V0.278122H26.8453L23.0862 5.12687V0.278122H21.4518V7.90536H22.8683L26.6274 3.05662V7.90536H28.2618Z" fill="white"/>
<path d="M30.3245 6.43439V9.48529H31.959V7.90536H36.5353V9.48529H38.1697V6.43439H37.2435V0.278122H31.959V2.62077C31.959 3.13289 31.9154 3.61231 31.8282 4.05905C31.741 4.51669 31.643 4.87626 31.5449 5.14866C31.4359 5.41016 31.3161 5.64988 31.1744 5.87869C31.0328 6.09661 30.9456 6.23826 30.8911 6.30364C30.8258 6.35812 30.7931 6.4126 30.7604 6.43439H30.3245ZM33.5934 2.62077V1.74909H35.6091V6.43439H32.3948L32.5256 6.30364C32.6018 6.21647 32.6999 6.07482 32.8197 5.8678C32.9396 5.66077 33.0486 5.42106 33.1684 5.14866C33.2883 4.87626 33.3863 4.50579 33.4626 4.05905C33.5498 3.61231 33.5934 3.13289 33.5934 2.62077Z" fill="white"/>
<path d="M47.3114 7.90536V0.278122H45.8949L42.1358 5.12687V0.278122H40.5014V7.90536H41.9178L45.677 3.05662V7.90536H47.3114Z" fill="white"/>
<path d="M51.8817 0.278122H50.2473V2.62077C50.2473 3.53604 50.487 4.24429 50.9665 4.7455C51.4568 5.25762 52.1214 5.50823 52.9713 5.50823C53.7014 5.50823 54.3007 5.36658 54.7692 5.07239V7.90536H56.4036V0.278122H54.7692V3.49246L54.5839 3.63411C54.4641 3.72128 54.2789 3.80844 54.0282 3.90651C53.7776 3.99368 53.5161 4.03726 53.2437 4.03726C52.8079 4.03726 52.4701 3.9174 52.2304 3.67769C52.0016 3.42708 51.8817 3.07841 51.8817 2.62077V0.278122Z" fill="white"/>
<path d="M65.9856 0.278122H64.3512V3.32902H61.0824V0.278122H59.448V7.90536H61.0824V4.79999H64.3512V7.90536H65.9856V0.278122Z" fill="white"/>
<path d="M72.9549 4.69102H71.1026L72.0288 2.18493L72.9549 4.69102ZM73.4997 6.10751L74.1535 7.90536H75.8969L72.9004 0.278122H71.1571L68.1606 7.90536H69.904L70.5578 6.10751H73.4997Z" fill="white"/>
<path d="M83.0222 0.278122H81.3878V7.90536H83.0222V5.72615L84.0029 4.63654L86.2366 7.90536H88.1434L85.0925 3.43798L87.9255 0.278122H86.0187L83.0222 3.60142V0.278122Z" fill="white"/>
<path d="M91.4614 4.09122C91.4614 3.39387 91.7012 2.79459 92.1806 2.31516C92.6491 1.82484 93.2266 1.58513 93.9131 1.58513C94.5995 1.58513 95.177 1.82484 95.6455 2.31516C96.125 2.79459 96.3647 3.39387 96.3647 4.09122C96.3647 4.79946 96.125 5.38785 95.6455 5.86728C95.177 6.3576 94.5995 6.59732 93.9131 6.59732C93.2266 6.59732 92.6491 6.3576 92.1806 5.86728C91.7012 5.38785 91.4614 4.79946 91.4614 4.09122ZM89.7726 4.09122C89.7726 5.18083 90.1757 6.12878 90.9711 6.9024C91.7665 7.67603 92.7472 8.06828 93.9131 8.06828C95.0789 8.06828 96.0596 7.67603 96.855 6.9024C97.6504 6.12878 98.0536 5.18083 98.0536 4.09122C98.0536 2.99072 97.6504 2.05366 96.855 1.28004C96.0596 0.506417 95.0789 0.114159 93.9131 0.114159C92.7472 0.114159 91.7665 0.506417 90.9711 1.28004C90.1757 2.05366 89.7726 2.99072 89.7726 4.09122Z" fill="white"/>
<path d="M104.748 3.60142L102.133 0.278122H100.662V7.90536H102.297V2.83869L104.748 5.94407L107.2 2.8169V7.90536H108.834V0.278122H107.385L104.748 3.60142Z" fill="white"/>
<path d="M118.359 0.278122H111.876V7.90536H113.511V1.74909H116.725V7.90536H118.359V0.278122Z" fill="white"/>
<path d="M125.33 4.69102H123.477L124.404 2.18493L125.33 4.69102ZM125.875 6.10751L126.528 7.90536H128.272L125.275 0.278122H123.532L120.536 7.90536H122.279L122.933 6.10751H125.875Z" fill="white"/>
<path d="M136.983 0.278122H135.349V3.32902H132.08V0.278122H130.445V7.90536H132.08V4.79999H135.349V7.90536H136.983V0.278122Z" fill="white"/>
<path d="M141.662 0.278122H140.027V7.90536H141.662V0.278122Z" fill="white"/>
<path d="M150.373 0.278122H146.995C146.232 0.278122 145.611 0.517835 145.121 0.997261C144.63 1.47669 144.38 2.07597 144.38 2.78421C144.38 3.0893 144.434 3.3726 144.521 3.645C144.619 3.9174 144.728 4.12443 144.859 4.27697C144.979 4.42952 145.11 4.57117 145.273 4.70192C145.426 4.83267 145.535 4.91984 145.6 4.95253C145.655 4.97432 145.709 5.00701 145.742 5.01791L144.107 7.90536H145.851L147.322 5.23583H148.738V7.90536H150.373V0.278122ZM146.014 2.78421C146.014 2.47913 146.112 2.23941 146.308 2.04328C146.504 1.84715 146.755 1.74909 147.049 1.74909H148.738V3.76486H147.049C146.755 3.76486 146.504 3.6668 146.308 3.48156C146.112 3.29633 146.014 3.05662 146.014 2.78421Z" fill="white"/>
</svg>
